<svg xmlns="http://www.w3.org/2000/svg" xmlns:xlink="http://www.w3.org/1999/xlink" preserveAspectRatio="xMidYMid" width="17" height="14" viewBox="0 0 17 14">
  <defs>
    <style>
      .cls-1 {
        fill: #141e29;
        fill-rule: evenodd;
      }
    </style>
  </defs>
  <path d="M-0.000,14.000 L-0.000,1.615 L4.250,1.615 L5.312,-0.000 L11.687,-0.000 L12.750,1.615 L17.000,1.615 L17.000,14.000 L-0.000,14.000 ZM15.937,2.692 L12.181,2.692 L11.119,1.077 L5.881,1.077 L4.819,2.692 L1.062,2.692 L1.062,12.923 L15.937,12.923 L15.937,2.692 ZM8.500,3.231 C10.847,3.231 12.750,5.159 12.750,7.538 C12.750,9.917 10.847,11.846 8.500,11.846 C6.153,11.846 4.250,9.917 4.250,7.538 C4.250,5.159 6.153,3.231 8.500,3.231 ZM8.500,10.769 C10.258,10.769 11.687,9.320 11.687,7.538 C11.687,5.757 10.258,4.308 8.500,4.308 C6.742,4.308 5.312,5.757 5.312,7.538 C5.312,9.320 6.742,10.769 8.500,10.769 ZM14.344,3.769 C14.759,3.769 15.095,4.110 15.095,4.531 C15.095,4.951 14.759,5.292 14.344,5.292 C13.929,5.292 13.592,4.951 13.592,4.531 C13.592,4.110 13.929,3.769 14.344,3.769 Z" class="cls-1"/>
</svg>
