<svg xmlns="http://www.w3.org/2000/svg" xmlns:xlink="http://www.w3.org/1999/xlink" preserveAspectRatio="xMidYMid" width="32" height="30" viewBox="0 0 32 30">
  <defs>
    <style>
      .cls-1 {
        fill: #acacac;
        fill-rule: evenodd;
      }
    </style>
  </defs>
  <path d="M21.620,30.000 L18.800,30.000 L6.460,30.000 L3.630,30.000 L-0.000,30.000 L-0.000,26.460 L-0.000,23.630 L-0.000,-0.000 L32.000,-0.000 L32.000,20.370 L32.000,23.200 L32.000,30.000 L21.620,30.000 ZM2.000,28.000 L5.630,28.000 L11.220,22.420 L7.630,18.830 L2.000,24.460 L2.000,28.000 ZM30.000,2.000 L2.000,2.000 L2.000,21.630 L7.630,16.000 L12.630,21.000 L22.630,11.000 L30.000,18.370 L30.000,2.000 ZM30.000,21.200 L22.630,13.830 L14.040,22.420 L12.630,23.830 L8.460,28.000 L16.800,28.000 L19.620,28.000 L30.000,28.000 L30.000,21.200 ZM8.000,11.000 C6.343,11.000 5.000,9.657 5.000,8.000 C5.000,6.343 6.343,5.000 8.000,5.000 C9.657,5.000 11.000,6.343 11.000,8.000 C11.000,9.657 9.657,11.000 8.000,11.000 ZM8.000,7.000 C7.449,7.000 7.000,7.448 7.000,8.000 C7.000,8.552 7.449,9.000 8.000,9.000 C8.551,9.000 9.000,8.552 9.000,8.000 C9.000,7.448 8.551,7.000 8.000,7.000 Z" class="cls-1"/>
</svg>
