<svg xmlns="http://www.w3.org/2000/svg" xmlns:xlink="http://www.w3.org/1999/xlink" preserveAspectRatio="xMidYMid" width="50" height="50" viewBox="0 0 50 50">
  <defs>
    <style>
      .cls-1 {
        fill: #fff;
        stroke: #acacac;
      }

      .cls-2 {
        fill: #4b81ff;
        fill-rule: evenodd;
      }
    </style>
  </defs>
  <g>
    <path d="M30.620,40.000 L27.800,40.000 L15.460,40.000 L12.630,40.000 L9.000,40.000 L9.000,36.460 L9.000,33.630 L9.000,10.000 L40.999,10.000 L40.999,30.370 L40.999,33.200 L40.999,40.000 L30.620,40.000 ZM11.000,38.000 L14.630,38.000 L20.219,32.420 L16.630,28.830 L11.000,34.460 L11.000,38.000 ZM39.000,12.000 L11.000,12.000 L11.000,31.630 L16.630,26.000 L21.630,31.000 L31.630,21.000 L39.000,28.370 L39.000,12.000 ZM39.000,31.200 L31.630,23.830 L23.040,32.420 L21.630,33.830 L17.460,38.000 L25.800,38.000 L28.620,38.000 L39.000,38.000 L39.000,31.200 ZM17.000,21.000 C15.343,21.000 14.000,19.657 14.000,18.000 C14.000,16.343 15.343,15.000 17.000,15.000 C18.656,15.000 19.999,16.343 19.999,18.000 C19.999,19.657 18.656,21.000 17.000,21.000 ZM17.000,17.000 C16.448,17.000 16.000,17.448 16.000,18.000 C16.000,18.552 16.448,19.000 17.000,19.000 C17.551,19.000 18.000,18.552 18.000,18.000 C18.000,17.448 17.551,17.000 17.000,17.000 Z" class="cls-2"/>
  </g>
</svg>
