<svg xmlns="http://www.w3.org/2000/svg" xmlns:xlink="http://www.w3.org/1999/xlink" preserveAspectRatio="xMidYMid" width="32" height="32" viewBox="0 0 32 32">
  <defs>
    <style>
      .cls-1 {
        fill: #ffc94b;
        fill-rule: evenodd;
      }
    </style>
  </defs>
  <path d="M28.000,32.000 L10.000,32.000 L6.000,32.000 L4.000,32.000 C1.790,32.000 -0.000,30.210 -0.000,28.000 L-0.000,14.000 L6.000,14.000 L6.000,-0.000 L32.000,-0.000 L32.000,14.000 L32.000,28.000 C32.000,30.210 30.210,32.000 28.000,32.000 ZM6.000,16.000 L2.000,16.000 L2.000,28.000 C2.000,29.100 2.900,30.000 4.000,30.000 C5.100,30.000 6.000,29.100 6.000,28.000 L6.000,16.000 ZM30.000,14.000 L30.000,2.000 L8.000,2.000 L8.000,14.000 L8.000,28.000 C8.000,28.730 7.800,29.410 7.460,30.000 L10.000,30.000 L24.540,30.000 L28.000,30.000 C29.100,30.000 30.000,29.100 30.000,28.000 L30.000,14.000 ZM11.000,24.000 L27.000,24.000 L27.000,26.000 L11.000,26.000 L11.000,24.000 ZM11.000,20.000 L27.000,20.000 L27.000,22.000 L11.000,22.000 L11.000,20.000 ZM11.000,16.000 L27.000,16.000 L27.000,18.000 L11.000,18.000 L11.000,16.000 ZM11.000,5.000 L27.000,5.000 L27.000,13.000 L11.000,13.000 L11.000,5.000 ZM13.000,11.000 L25.000,11.000 L25.000,7.000 L13.000,7.000 L13.000,11.000 Z" class="cls-1"/>
</svg>
