<svg xmlns="http://www.w3.org/2000/svg" xmlns:xlink="http://www.w3.org/1999/xlink" preserveAspectRatio="xMidYMid" width="26" height="30" viewBox="0 0 26 30">
  <defs>
    <style>
      .cls-1 {
        fill: #141e29;
        fill-rule: evenodd;
      }
    </style>
  </defs>
  <path d="M23.214,20.616 L23.214,13.228 L23.214,13.012 C23.214,12.872 23.205,12.741 23.196,12.600 C23.066,9.816 21.886,7.331 19.871,5.597 C19.769,5.503 19.658,5.409 19.556,5.316 C18.469,4.397 17.188,3.703 15.786,3.309 L15.786,3.084 C15.786,1.416 14.653,-0.000 13.000,-0.000 C11.347,-0.000 10.214,1.416 10.214,3.084 L10.214,3.309 C8.812,3.703 7.531,4.397 6.444,5.316 C6.342,5.409 6.231,5.503 6.128,5.597 C4.113,7.331 2.934,9.816 2.804,12.600 C2.795,12.741 2.786,12.872 2.786,13.012 L2.786,13.228 L2.786,20.616 L-0.000,23.494 L-0.000,26.250 L8.450,26.250 C8.877,28.387 10.753,30.000 13.000,30.000 C15.247,30.000 17.123,28.387 17.550,26.250 L26.000,26.250 L26.000,23.494 L23.214,20.616 ZM13.000,1.875 C13.585,1.875 13.891,2.381 13.919,2.962 C13.613,2.925 13.306,2.916 13.000,2.916 C12.694,2.916 12.387,2.925 12.081,2.962 C12.109,2.381 12.415,1.875 13.000,1.875 ZM13.000,28.125 C11.793,28.125 10.762,27.337 10.381,26.250 L15.619,26.250 C15.238,27.337 14.207,28.125 13.000,28.125 ZM24.143,24.375 L1.857,24.375 L1.857,24.262 L4.643,21.394 L4.643,19.153 L4.643,13.228 C4.643,13.059 4.652,12.891 4.661,12.731 C4.661,12.469 4.689,12.206 4.736,11.944 C4.745,11.803 4.773,11.672 4.810,11.531 C5.061,10.294 5.581,9.159 6.305,8.184 C6.379,8.072 6.463,7.969 6.556,7.866 C6.723,7.659 6.908,7.453 7.094,7.266 C8.190,6.187 9.592,5.400 11.171,5.006 L11.960,4.856 C12.304,4.809 12.647,4.791 13.000,4.791 C13.353,4.791 13.696,4.809 14.040,4.856 L14.829,5.006 C16.408,5.400 17.810,6.187 18.906,7.266 C19.091,7.453 19.277,7.659 19.444,7.866 C19.537,7.969 19.621,8.072 19.695,8.184 C20.419,9.159 20.939,10.294 21.190,11.531 C21.227,11.672 21.255,11.803 21.264,11.944 C21.311,12.206 21.339,12.469 21.339,12.731 C21.348,12.891 21.357,13.059 21.357,13.228 L21.357,19.153 L21.357,21.394 L24.143,24.262 L24.143,24.375 Z" class="cls-1"/>
</svg>
