<svg xmlns="http://www.w3.org/2000/svg" xmlns:xlink="http://www.w3.org/1999/xlink" preserveAspectRatio="xMidYMid" width="32" height="30" viewBox="0 0 32 30">
  <defs>
    <style>
      .cls-1 {
        fill: #ffc94b;
        fill-rule: evenodd;
      }
    </style>
  </defs>
  <path d="M-0.000,30.000 L-0.000,10.000 L-0.000,8.000 L-0.000,-0.000 L7.000,-0.000 L7.000,-0.000 L9.000,-0.000 L9.000,-0.000 L23.000,-0.000 L23.000,-0.000 L25.000,-0.000 L25.000,-0.000 L32.000,-0.000 L32.000,8.000 L32.000,10.000 L32.000,30.000 L-0.000,30.000 ZM30.000,2.000 L25.000,2.000 L25.000,2.000 L23.000,2.000 L23.000,2.000 L9.000,2.000 L9.000,2.000 L7.000,2.000 L7.000,2.000 L2.000,2.000 L2.000,8.000 L30.000,8.000 L30.000,2.000 ZM30.000,10.000 L2.000,10.000 L2.000,28.000 L30.000,28.000 L30.000,10.000 ZM6.000,6.000 L4.000,6.000 L4.000,4.000 L6.000,4.000 L6.000,6.000 ZM10.000,6.000 L8.000,6.000 L8.000,4.000 L10.000,4.000 L10.000,6.000 ZM14.000,6.000 L12.000,6.000 L12.000,4.000 L14.000,4.000 L14.000,6.000 Z" class="cls-1"/>
</svg>
