<svg xmlns="http://www.w3.org/2000/svg" xmlns:xlink="http://www.w3.org/1999/xlink" preserveAspectRatio="xMidYMid" width="29.969" height="30" viewBox="0 0 29.969 30">
  <defs>
    <style>
      .cls-1 {
        fill: #4caf50;
        fill-rule: evenodd;
      }
    </style>
  </defs>
  <path d="M16.344,3.845 L16.344,2.011 C22.748,2.011 27.958,7.221 27.958,13.625 L26.124,13.625 C26.124,8.232 21.737,3.845 16.344,3.845 ZM16.344,8.124 L16.344,6.290 C20.389,6.290 23.679,9.580 23.679,13.625 L21.845,13.625 C21.845,10.592 19.378,8.124 16.344,8.124 ZM19.229,20.246 L21.929,17.546 L29.969,25.586 L29.374,26.234 C29.044,26.591 26.082,29.735 23.446,29.978 C23.292,29.993 23.131,30.000 22.967,30.000 C19.433,30.000 13.778,26.628 8.560,21.410 C5.936,18.786 3.732,16.004 2.186,13.363 C1.073,11.460 -0.212,8.729 -0.009,6.523 C0.234,3.887 3.378,0.924 3.736,0.595 L4.383,-0.000 L12.423,8.040 L9.723,10.740 L19.229,20.246 ZM9.829,8.040 L4.354,2.565 C3.367,3.606 1.938,5.373 1.817,6.691 C1.693,8.034 2.386,10.075 3.769,12.437 C5.237,14.944 7.342,17.598 9.856,20.113 C14.598,24.854 19.989,28.166 22.967,28.166 C23.075,28.166 23.179,28.161 23.278,28.152 C24.585,28.032 26.372,26.587 27.403,25.614 L21.929,20.140 L19.229,22.840 L7.130,10.740 L9.829,8.040 Z" class="cls-1"/>
</svg>
