<svg xmlns="http://www.w3.org/2000/svg" xmlns:xlink="http://www.w3.org/1999/xlink" preserveAspectRatio="xMidYMid" width="28" height="32" viewBox="0 0 28 32">
  <defs>
    <style>
      .cls-1 {
        fill: #ffc94b;
        fill-rule: evenodd;
      }
    </style>
  </defs>
  <path d="M26.000,6.000 L20.920,6.000 C20.440,2.600 17.530,-0.000 14.000,-0.000 C10.470,-0.000 7.560,2.600 7.080,6.000 L2.000,6.000 L-0.000,32.000 L28.000,32.000 L26.000,6.000 ZM14.000,2.000 C16.420,2.000 18.440,3.720 18.900,6.000 L9.100,6.000 C9.560,3.720 11.580,2.000 14.000,2.000 ZM2.160,30.000 L3.850,8.000 L7.080,8.000 L9.100,8.000 L18.900,8.000 L20.920,8.000 L24.150,8.000 L25.840,30.000 L2.160,30.000 Z" class="cls-1"/>
</svg>
