<svg xmlns="http://www.w3.org/2000/svg" xmlns:xlink="http://www.w3.org/1999/xlink" preserveAspectRatio="xMidYMid" width="23" height="20" viewBox="0 0 23 20">
  <defs>
    <style>
      .cls-1 {
        fill: #141e29;
        fill-rule: evenodd;
      }
    </style>
  </defs>
  <path d="M22.894,7.012 L20.508,10.326 C20.500,10.338 20.487,10.342 20.478,10.352 C20.437,10.402 20.389,10.442 20.333,10.476 C20.313,10.488 20.297,10.503 20.276,10.513 C20.199,10.548 20.116,10.572 20.025,10.572 C19.926,10.572 19.837,10.542 19.755,10.500 C19.746,10.496 19.735,10.498 19.727,10.493 L16.035,8.378 C15.755,8.217 15.662,7.867 15.828,7.595 C15.994,7.324 16.355,7.233 16.635,7.394 L19.367,8.960 C18.834,4.565 14.977,1.142 10.307,1.142 C5.272,1.142 1.177,5.116 1.177,10.000 C1.177,14.884 5.272,18.857 10.307,18.857 C13.527,18.857 16.544,17.182 18.180,14.487 C18.345,14.214 18.706,14.125 18.986,14.284 C19.267,14.444 19.359,14.794 19.196,15.067 C17.350,18.110 13.943,20.000 10.307,20.000 C4.624,20.000 0.000,15.514 0.000,10.000 C0.000,4.485 4.624,-0.001 10.307,-0.001 C15.424,-0.001 19.670,3.640 20.468,8.388 L21.928,6.359 C22.115,6.100 22.482,6.037 22.748,6.217 C23.015,6.397 23.080,6.754 22.894,7.012 Z" class="cls-1"/>
</svg>
