<svg xmlns="http://www.w3.org/2000/svg" xmlns:xlink="http://www.w3.org/1999/xlink" preserveAspectRatio="xMidYMid" width="32" height="32" viewBox="0 0 32 32">
  <defs>
    <style>
      .cls-1 {
        fill: #ffc94b;
        fill-rule: evenodd;
      }
    </style>
  </defs>
  <path d="M29.703,13.839 C29.154,14.408 28.845,15.178 28.845,15.993 C28.845,16.800 29.154,17.565 29.715,18.146 C30.095,18.526 30.568,18.810 31.067,18.952 L32.000,19.219 L31.749,20.155 C31.562,20.858 31.327,21.552 31.051,22.217 C30.772,22.880 30.452,23.518 30.070,24.173 L29.582,25.008 L28.737,24.537 C28.283,24.282 27.764,24.176 27.222,24.168 C26.404,24.177 25.643,24.495 25.075,25.063 C24.510,25.631 24.192,26.392 24.180,27.208 C24.172,27.726 24.306,28.270 24.556,28.739 L25.000,29.567 L24.193,30.049 C23.570,30.423 22.906,30.752 22.220,31.029 C21.564,31.296 20.877,31.533 20.183,31.730 L19.236,32.000 L18.965,31.052 C18.819,30.544 18.538,30.075 18.151,29.698 C16.994,28.563 15.004,28.565 13.852,29.696 C13.467,30.064 13.190,30.530 13.040,31.052 L12.770,31.994 L11.827,31.732 C11.146,31.542 10.476,31.312 9.778,31.027 C9.140,30.770 8.494,30.453 7.809,30.058 L6.967,29.571 L7.441,28.722 C7.698,28.264 7.830,27.740 7.821,27.209 C7.812,26.391 7.494,25.631 6.926,25.063 C6.351,24.497 5.584,24.177 4.773,24.168 C4.194,24.164 3.707,24.287 3.247,24.541 L2.405,25.002 L1.921,24.174 C1.567,23.569 1.250,22.930 0.952,22.221 L0.868,22.008 C0.645,21.464 0.443,20.858 0.252,20.161 L-0.000,19.235 L0.918,18.957 C1.442,18.798 1.912,18.517 2.278,18.142 C2.842,17.554 3.156,16.788 3.156,15.993 C3.156,15.185 2.843,14.416 2.274,13.828 C1.908,13.452 1.443,13.175 0.931,13.028 L0.004,12.761 L0.250,11.828 C0.433,11.136 0.662,10.462 0.950,9.768 C1.265,9.020 1.582,8.377 1.921,7.796 L2.407,6.965 L3.250,7.431 C3.721,7.693 4.253,7.830 4.767,7.816 C5.585,7.805 6.351,7.481 6.926,6.907 C7.494,6.341 7.812,5.583 7.821,4.769 C7.829,4.241 7.697,3.716 7.438,3.243 L6.975,2.400 L7.807,1.917 C8.393,1.575 9.034,1.258 9.766,0.948 C10.476,0.657 11.151,0.429 11.841,0.248 L12.770,0.006 L13.038,0.927 C13.190,1.448 13.467,1.909 13.840,2.262 C15.017,3.423 16.999,3.406 18.148,2.276 C18.532,1.903 18.821,1.427 18.966,0.927 L19.236,-0.000 L20.169,0.250 C20.867,0.437 21.559,0.670 22.224,0.942 C22.914,1.225 23.577,1.555 24.192,1.923 L24.993,2.401 L24.560,3.226 C24.303,3.717 24.172,4.249 24.180,4.765 C24.192,5.582 24.510,6.341 25.075,6.907 C25.643,7.483 26.403,7.804 27.220,7.816 C27.752,7.817 28.271,7.693 28.738,7.432 L29.583,6.962 L30.070,7.797 C30.425,8.406 30.753,9.062 31.047,9.747 C31.343,10.473 31.571,11.149 31.750,11.828 L31.997,12.761 L31.069,13.028 C30.552,13.176 30.093,13.449 29.703,13.839 ZM29.227,10.507 C29.088,10.183 28.939,9.863 28.781,9.552 C28.267,9.717 27.731,9.797 27.189,9.788 C25.852,9.768 24.604,9.238 23.675,8.296 C22.750,7.372 22.227,6.127 22.207,4.795 C22.199,4.264 22.279,3.728 22.441,3.208 C22.129,3.050 21.807,2.903 21.477,2.768 C21.153,2.635 20.822,2.513 20.487,2.403 C20.239,2.876 19.914,3.310 19.526,3.686 C18.587,4.612 17.333,5.125 16.000,5.125 C14.668,5.125 13.414,4.612 12.469,3.680 C12.087,3.319 11.763,2.885 11.513,2.401 C11.187,2.509 10.859,2.630 10.525,2.768 C10.183,2.913 9.862,3.060 9.560,3.212 C9.722,3.725 9.802,4.261 9.794,4.796 C9.778,6.125 9.255,7.372 8.319,8.303 C7.381,9.241 6.130,9.768 4.798,9.788 C4.241,9.788 3.727,9.716 3.214,9.553 C3.064,9.855 2.918,10.178 2.770,10.528 C2.635,10.855 2.513,11.179 2.405,11.502 C2.881,11.749 3.316,12.070 3.690,12.455 C4.619,13.417 5.129,14.672 5.129,15.993 C5.129,17.300 4.620,18.550 3.696,19.513 C3.320,19.898 2.883,20.221 2.404,20.471 C2.515,20.809 2.631,21.118 2.753,21.403 L2.843,21.625 C2.962,21.903 3.086,22.168 3.214,22.423 C3.723,22.264 4.255,22.194 4.800,22.196 C6.119,22.210 7.370,22.732 8.316,23.664 C9.255,24.603 9.778,25.851 9.794,27.182 C9.802,27.720 9.723,28.255 9.562,28.765 C9.887,28.929 10.204,29.073 10.519,29.200 C10.858,29.338 11.188,29.462 11.514,29.572 C11.765,29.088 12.090,28.650 12.481,28.278 C13.418,27.359 14.671,26.848 16.000,26.848 C17.329,26.848 18.583,27.359 19.531,28.288 C19.916,28.664 20.239,29.099 20.486,29.571 C20.822,29.457 21.154,29.334 21.478,29.202 C21.806,29.069 22.127,28.923 22.439,28.767 C22.278,28.251 22.199,27.714 22.207,27.178 C22.227,25.849 22.749,24.603 23.678,23.671 C24.615,22.734 25.864,22.211 27.194,22.196 C27.760,22.200 28.274,22.264 28.781,22.422 C28.945,22.102 29.094,21.782 29.230,21.456 C29.362,21.138 29.485,20.809 29.596,20.476 C29.127,20.232 28.692,19.912 28.308,19.528 C27.377,18.563 26.872,17.312 26.872,15.993 C26.872,14.664 27.378,13.409 28.295,12.458 C28.683,12.069 29.123,11.748 29.596,11.502 C29.488,11.177 29.365,10.848 29.227,10.507 ZM16.000,22.000 C12.686,22.000 10.000,19.314 10.000,16.000 C10.000,12.686 12.686,10.000 16.000,10.000 C19.314,10.000 22.000,12.686 22.000,16.000 C22.000,19.314 19.314,22.000 16.000,22.000 ZM16.000,12.000 C13.794,12.000 12.000,13.794 12.000,16.000 C12.000,18.206 13.794,20.000 16.000,20.000 C18.206,20.000 20.000,18.206 20.000,16.000 C20.000,13.794 18.206,12.000 16.000,12.000 Z" class="cls-1"/>
</svg>
