<svg xmlns="http://www.w3.org/2000/svg" xmlns:xlink="http://www.w3.org/1999/xlink" preserveAspectRatio="xMidYMid" width="15" height="15" viewBox="0 0 15 15">
  <defs>
    <style>
      .cls-1 {
        fill: #141e29;
        fill-rule: evenodd;
      }
    </style>
  </defs>
  <path d="M13.923,6.487 C13.666,6.754 13.521,7.115 13.521,7.497 C13.521,7.875 13.666,8.233 13.929,8.506 C14.107,8.684 14.329,8.817 14.563,8.884 L15.000,9.009 L14.883,9.447 C14.794,9.777 14.684,10.102 14.555,10.414 C14.424,10.725 14.274,11.024 14.095,11.331 L13.867,11.723 L13.471,11.502 C13.257,11.382 13.015,11.332 12.760,11.329 C12.377,11.333 12.020,11.482 11.754,11.748 C11.489,12.014 11.340,12.371 11.334,12.754 C11.331,12.996 11.393,13.251 11.511,13.471 L11.719,13.859 L11.341,14.085 C11.048,14.261 10.737,14.415 10.415,14.545 C10.108,14.670 9.786,14.781 9.461,14.874 L9.017,15.000 L8.890,14.556 C8.821,14.317 8.690,14.098 8.508,13.921 C7.966,13.389 7.033,13.390 6.493,13.920 C6.313,14.092 6.183,14.311 6.113,14.556 L5.986,14.997 L5.544,14.874 C5.225,14.786 4.911,14.678 4.584,14.544 C4.284,14.424 3.982,14.275 3.661,14.090 L3.266,13.862 L3.488,13.464 C3.608,13.249 3.670,13.003 3.666,12.754 C3.662,12.371 3.513,12.015 3.247,11.748 C2.977,11.483 2.618,11.333 2.237,11.329 C1.966,11.327 1.738,11.385 1.522,11.503 L1.127,11.720 L0.900,11.331 C0.735,11.048 0.586,10.748 0.446,10.416 L0.407,10.316 C0.303,10.061 0.208,9.777 0.118,9.450 L-0.000,9.016 L0.430,8.886 C0.676,8.812 0.896,8.680 1.068,8.504 C1.332,8.228 1.479,7.870 1.479,7.497 C1.479,7.118 1.332,6.757 1.066,6.482 C0.894,6.306 0.676,6.176 0.437,6.107 L0.002,5.982 L0.117,5.544 C0.203,5.220 0.310,4.904 0.445,4.579 C0.593,4.228 0.741,3.927 0.900,3.654 L1.128,3.265 L1.523,3.483 C1.744,3.606 1.993,3.670 2.235,3.664 C2.618,3.659 2.977,3.507 3.247,3.237 C3.513,2.973 3.662,2.617 3.666,2.235 C3.670,1.988 3.608,1.742 3.486,1.520 L3.270,1.125 L3.659,0.899 C3.934,0.738 4.235,0.590 4.578,0.444 C4.911,0.308 5.227,0.201 5.550,0.116 L5.986,0.003 L6.112,0.435 C6.183,0.679 6.313,0.895 6.487,1.060 C7.039,1.604 7.968,1.597 8.507,1.067 C8.687,0.892 8.822,0.669 8.890,0.435 L9.017,-0.000 L9.454,0.117 C9.781,0.205 10.106,0.314 10.418,0.442 C10.741,0.574 11.052,0.729 11.340,0.901 L11.715,1.126 L11.513,1.512 C11.392,1.743 11.331,1.992 11.334,2.234 C11.340,2.616 11.489,2.973 11.754,3.237 C12.020,3.508 12.376,3.658 12.759,3.664 C13.009,3.664 13.252,3.606 13.471,3.484 L13.867,3.264 L14.095,3.655 C14.262,3.940 14.416,4.248 14.553,4.569 C14.692,4.909 14.799,5.226 14.883,5.544 L14.999,5.982 L14.564,6.107 C14.321,6.176 14.106,6.304 13.923,6.487 ZM13.700,4.925 C13.635,4.773 13.565,4.623 13.491,4.478 C13.250,4.555 12.999,4.592 12.745,4.588 C12.118,4.579 11.533,4.330 11.098,3.889 C10.664,3.455 10.419,2.872 10.410,2.248 C10.406,1.999 10.443,1.748 10.519,1.504 C10.373,1.430 10.222,1.361 10.067,1.298 C9.916,1.235 9.760,1.178 9.604,1.126 C9.487,1.348 9.335,1.552 9.153,1.728 C8.713,2.162 8.125,2.402 7.500,2.402 C6.876,2.402 6.288,2.162 5.845,1.725 C5.666,1.556 5.514,1.352 5.397,1.126 C5.244,1.176 5.090,1.233 4.934,1.298 C4.773,1.365 4.623,1.434 4.481,1.506 C4.557,1.746 4.594,1.997 4.591,2.248 C4.584,2.871 4.338,3.455 3.899,3.892 C3.460,4.332 2.874,4.579 2.249,4.588 C1.988,4.588 1.747,4.554 1.507,4.478 C1.436,4.619 1.368,4.771 1.299,4.935 C1.235,5.088 1.178,5.240 1.127,5.392 C1.350,5.507 1.554,5.658 1.730,5.838 C2.165,6.289 2.404,6.878 2.404,7.497 C2.404,8.109 2.166,8.695 1.733,9.147 C1.556,9.327 1.351,9.479 1.127,9.596 C1.179,9.754 1.233,9.899 1.290,10.032 L1.332,10.137 C1.388,10.267 1.447,10.391 1.507,10.511 C1.745,10.436 1.994,10.403 2.250,10.404 C2.868,10.411 3.455,10.656 3.898,11.093 C4.338,11.533 4.584,12.118 4.591,12.741 C4.595,12.994 4.557,13.245 4.482,13.483 C4.635,13.561 4.783,13.628 4.931,13.687 C5.090,13.752 5.244,13.810 5.397,13.862 C5.515,13.635 5.667,13.430 5.850,13.255 C6.290,12.824 6.877,12.585 7.500,12.585 C8.123,12.585 8.711,12.824 9.155,13.260 C9.336,13.436 9.487,13.640 9.603,13.862 C9.760,13.808 9.916,13.750 10.068,13.688 C10.222,13.626 10.372,13.558 10.518,13.484 C10.443,13.243 10.406,12.991 10.410,12.740 C10.419,12.117 10.664,11.533 11.099,11.096 C11.538,10.657 12.124,10.412 12.747,10.404 C13.013,10.406 13.253,10.436 13.491,10.510 C13.568,10.360 13.638,10.210 13.702,10.058 C13.764,9.908 13.821,9.754 13.873,9.598 C13.653,9.484 13.449,9.334 13.269,9.154 C12.833,8.701 12.596,8.115 12.596,7.497 C12.596,6.874 12.833,6.285 13.263,5.840 C13.445,5.658 13.651,5.507 13.873,5.392 C13.822,5.239 13.765,5.085 13.700,4.925 ZM7.500,10.312 C5.947,10.312 4.687,9.053 4.687,7.500 C4.687,5.947 5.947,4.687 7.500,4.687 C9.053,4.687 10.312,5.947 10.312,7.500 C10.312,9.053 9.053,10.312 7.500,10.312 ZM7.500,5.625 C6.466,5.625 5.625,6.466 5.625,7.500 C5.625,8.534 6.466,9.375 7.500,9.375 C8.534,9.375 9.375,8.534 9.375,7.500 C9.375,6.466 8.534,5.625 7.500,5.625 Z" class="cls-1"/>
</svg>
