<svg xmlns="http://www.w3.org/2000/svg" xmlns:xlink="http://www.w3.org/1999/xlink" preserveAspectRatio="xMidYMid" width="30" height="32" viewBox="0 0 30 32">
  <defs>
    <style>
      .cls-1 {
        fill: #898989;
        fill-rule: evenodd;
      }
    </style>
  </defs>
  <path d="M27.999,6.000 L27.999,32.000 L2.000,32.000 L2.000,6.000 L-0.000,6.000 L-0.000,4.000 L2.000,4.000 L9.000,4.000 L9.000,2.000 L9.000,-0.000 L20.999,-0.000 L20.999,2.000 L20.999,4.000 L27.999,4.000 L30.000,4.000 L30.000,6.000 L27.999,6.000 ZM18.999,2.000 L11.000,2.000 L11.000,4.000 L18.999,4.000 L18.999,2.000 ZM25.999,6.000 L4.000,6.000 L4.000,30.000 L25.999,30.000 L25.999,6.000 ZM10.000,26.000 L8.000,26.000 L8.000,10.000 L10.000,10.000 L10.000,26.000 ZM16.000,26.000 L13.999,26.000 L13.999,10.000 L16.000,10.000 L16.000,26.000 ZM22.000,26.000 L19.999,26.000 L19.999,10.000 L22.000,10.000 L22.000,26.000 Z" class="cls-1"/>
</svg>
