<svg xmlns="http://www.w3.org/2000/svg" xmlns:xlink="http://www.w3.org/1999/xlink" preserveAspectRatio="xMidYMid" width="39" height="31" viewBox="0 0 39 31">
  <defs>
    <style>
      .cls-1 {
        fill: #ffc94b;
        fill-rule: evenodd;
      }
    </style>
  </defs>
  <path d="M32.577,15.126 C36.320,16.169 39.000,18.911 39.000,22.143 L37.700,22.143 C37.700,18.711 33.910,15.915 29.250,15.915 C25.177,15.915 21.770,18.051 20.975,20.880 C25.262,22.870 28.167,26.648 28.167,31.000 L26.289,31.000 C26.289,25.662 20.815,21.312 14.083,21.312 C7.351,21.312 1.878,25.662 1.878,31.000 L-0.000,31.000 C-0.000,25.973 3.871,21.707 9.277,20.084 C5.996,18.300 3.756,14.750 3.756,10.656 C3.756,4.771 8.379,-0.000 14.083,-0.000 C17.985,-0.000 21.379,2.233 23.135,5.527 C24.388,3.544 26.654,2.214 29.250,2.214 C33.199,2.214 36.400,5.281 36.400,9.065 C36.400,11.696 34.849,13.978 32.577,15.126 ZM25.923,15.126 C25.189,14.755 24.541,14.256 23.985,13.674 C23.663,14.800 23.151,15.836 22.509,16.773 C23.481,16.059 24.632,15.485 25.923,15.126 ZM19.800,20.391 C19.946,19.930 20.140,19.485 20.392,19.062 C19.918,19.441 19.423,19.794 18.889,20.084 C19.199,20.177 19.501,20.281 19.800,20.391 ZM14.083,1.937 C9.424,1.937 5.633,5.849 5.633,10.656 C5.633,15.463 9.424,19.375 14.083,19.375 C18.536,19.375 22.186,15.800 22.502,11.288 C22.251,10.589 22.100,9.846 22.100,9.065 C22.100,8.751 22.130,8.446 22.172,8.144 C21.124,4.558 17.896,1.937 14.083,1.937 ZM29.250,3.460 C26.759,3.460 24.642,4.966 23.799,7.072 C24.188,8.194 24.411,9.397 24.411,10.656 C24.411,11.129 24.374,11.592 24.316,12.048 C25.354,13.618 27.171,14.670 29.250,14.670 C32.476,14.670 35.100,12.155 35.100,9.065 C35.100,5.974 32.476,3.460 29.250,3.460 Z" class="cls-1"/>
</svg>
