<svg xmlns="http://www.w3.org/2000/svg" xmlns:xlink="http://www.w3.org/1999/xlink" preserveAspectRatio="xMidYMid" width="28" height="30" viewBox="0 0 28 30">
  <defs>
    <style>
      .cls-1 {
        fill: #fff;
        fill-rule: evenodd;
      }
    </style>
  </defs>
  <path d="M18.777,19.436 C22.040,17.709 24.267,14.274 24.267,10.312 C24.267,4.617 19.670,-0.000 14.000,-0.000 C8.330,-0.000 3.733,4.617 3.733,10.312 C3.733,14.274 5.960,17.709 9.222,19.436 C3.848,21.007 -0.000,25.136 -0.000,30.000 L1.867,30.000 C1.867,24.834 7.308,20.625 14.000,20.625 C20.692,20.625 26.133,24.834 26.133,30.000 L28.000,30.000 C28.000,25.136 24.152,21.007 18.777,19.436 ZM5.600,10.312 C5.600,5.660 9.368,1.875 14.000,1.875 C18.632,1.875 22.400,5.660 22.400,10.312 C22.400,14.965 18.632,18.750 14.000,18.750 C9.368,18.750 5.600,14.965 5.600,10.312 Z" class="cls-1"/>
</svg>
