<svg xmlns="http://www.w3.org/2000/svg" xmlns:xlink="http://www.w3.org/1999/xlink" preserveAspectRatio="xMidYMid" width="20" height="14" viewBox="0 0 20 14">
  <defs>
    <style>
      .cls-1 {
        fill: #141e29;
        fill-rule: evenodd;
      }
    </style>
  </defs>
  <path d="M19.524,3.733 L19.524,14.000 L10.323,14.000 L9.677,14.000 L0.476,14.000 L0.476,3.733 L-0.000,3.733 L-0.000,-0.000 L20.000,-0.000 L20.000,1.273 L20.000,3.733 L19.524,3.733 ZM1.905,13.067 L18.095,13.067 L18.095,3.733 L1.905,3.733 L1.905,13.067 ZM19.048,0.933 L0.952,0.933 L0.952,2.333 L0.952,2.800 L18.571,2.800 L19.048,2.800 L19.048,0.933 ZM11.490,7.081 L9.055,10.003 L7.540,8.146 L5.806,10.474 L5.364,10.170 L7.520,7.275 L9.060,9.161 L11.486,6.250 L12.603,7.562 L14.683,5.191 L15.099,5.528 L12.596,8.381 L11.490,7.081 Z" class="cls-1"/>
</svg>
