<svg xmlns="http://www.w3.org/2000/svg" xmlns:xlink="http://www.w3.org/1999/xlink" preserveAspectRatio="xMidYMid" width="15" height="14" viewBox="0 0 15 14">
  <defs>
    <style>
      .cls-1 {
        fill: #141e29;
        fill-rule: evenodd;
      }
    </style>
  </defs>
  <path d="M10.134,14.000 L8.812,14.000 L3.028,14.000 L1.701,14.000 L-0.000,14.000 L-0.000,12.348 L-0.000,11.027 L-0.000,-0.000 L15.000,-0.000 L15.000,9.506 L15.000,10.827 L15.000,14.000 L10.134,14.000 ZM0.937,13.067 L2.639,13.067 L5.259,10.463 L3.576,8.787 L0.937,11.414 L0.937,13.067 ZM14.062,0.933 L0.937,0.933 L0.937,10.094 L3.576,7.466 L5.920,9.800 L10.608,5.133 L14.062,8.573 L14.062,0.933 ZM14.062,9.893 L10.608,6.454 L6.581,10.463 L5.920,11.121 L3.965,13.067 L7.875,13.067 L9.197,13.067 L14.062,13.067 L14.062,9.893 ZM3.750,5.133 C2.973,5.133 2.344,4.506 2.344,3.733 C2.344,2.960 2.973,2.333 3.750,2.333 C4.526,2.333 5.156,2.960 5.156,3.733 C5.156,4.506 4.526,5.133 3.750,5.133 ZM3.750,3.267 C3.492,3.267 3.281,3.476 3.281,3.733 C3.281,3.991 3.492,4.200 3.750,4.200 C4.008,4.200 4.219,3.991 4.219,3.733 C4.219,3.476 4.008,3.267 3.750,3.267 Z" class="cls-1"/>
</svg>
