<svg xmlns="http://www.w3.org/2000/svg" xmlns:xlink="http://www.w3.org/1999/xlink" preserveAspectRatio="xMidYMid" width="16" height="14" viewBox="0 0 16 14">
  <defs>
    <style>
      .cls-1 {
        fill: #141e29;
        fill-rule: evenodd;
      }
    </style>
  </defs>
  <path d="M14.500,13.000 L14.500,14.000 L11.500,14.000 L11.500,13.000 L-0.000,13.000 L-0.000,12.000 L11.500,12.000 L11.500,11.000 L14.500,11.000 L14.500,12.000 L16.000,12.000 L16.000,13.000 L14.500,13.000 ZM13.500,12.000 L12.500,12.000 L12.500,13.000 L13.500,13.000 L13.500,12.000 ZM9.500,8.500 L6.500,8.500 L6.500,7.500 L-0.000,7.500 L-0.000,6.500 L6.500,6.500 L6.500,5.500 L9.500,5.500 L9.500,6.500 L16.000,6.500 L16.000,7.500 L9.500,7.500 L9.500,8.500 ZM8.500,6.500 L7.500,6.500 L7.500,7.500 L8.500,7.500 L8.500,6.500 ZM4.500,3.000 L1.500,3.000 L1.500,2.000 L-0.000,2.000 L-0.000,1.000 L1.500,1.000 L1.500,-0.000 L4.500,-0.000 L4.500,1.000 L16.000,1.000 L16.000,2.000 L4.500,2.000 L4.500,3.000 ZM2.500,1.000 L2.500,2.000 L3.500,2.000 L3.500,1.000 L2.500,1.000 Z" class="cls-1"/>
</svg>
