<svg xmlns="http://www.w3.org/2000/svg" xmlns:xlink="http://www.w3.org/1999/xlink" preserveAspectRatio="xMidYMid" width="14" height="14" viewBox="0 0 14 14">
  <defs>
    <style>
      .cls-1 {
        fill: #141e29;
        fill-rule: evenodd;
      }
    </style>
  </defs>
  <path d="M12.250,14.000 L4.375,14.000 L2.625,14.000 L1.750,14.000 C0.783,14.000 -0.000,13.217 -0.000,12.250 L-0.000,6.125 L2.625,6.125 L2.625,-0.000 L14.000,-0.000 L14.000,6.125 L14.000,12.250 C14.000,13.217 13.217,14.000 12.250,14.000 ZM2.625,7.000 L0.875,7.000 L0.875,12.250 C0.875,12.731 1.269,13.125 1.750,13.125 C2.231,13.125 2.625,12.731 2.625,12.250 L2.625,7.000 ZM13.125,6.125 L13.125,0.875 L3.500,0.875 L3.500,6.125 L3.500,12.250 C3.500,12.569 3.412,12.867 3.264,13.125 L4.375,13.125 L10.736,13.125 L12.250,13.125 C12.731,13.125 13.125,12.731 13.125,12.250 L13.125,6.125 ZM4.812,10.500 L11.812,10.500 L11.812,11.375 L4.812,11.375 L4.812,10.500 ZM4.812,8.750 L11.812,8.750 L11.812,9.625 L4.812,9.625 L4.812,8.750 ZM4.812,7.000 L11.812,7.000 L11.812,7.875 L4.812,7.875 L4.812,7.000 ZM4.812,2.187 L11.812,2.187 L11.812,5.687 L4.812,5.687 L4.812,2.187 ZM5.687,4.812 L10.937,4.812 L10.937,3.062 L5.687,3.062 L5.687,4.812 Z" class="cls-1"/>
</svg>
