<svg xmlns="http://www.w3.org/2000/svg" xmlns:xlink="http://www.w3.org/1999/xlink" preserveAspectRatio="xMidYMid" width="13" height="14" viewBox="0 0 13 14">
  <defs>
    <style>
      .cls-1 {
        fill: #141e29;
        fill-rule: evenodd;
      }
    </style>
  </defs>
  <path d="M-0.000,-0.000 L-0.000,14.000 L13.000,14.000 L13.000,-0.000 L-0.000,-0.000 ZM9.967,0.875 L9.967,6.562 L3.033,6.562 L3.033,0.875 L9.967,0.875 ZM0.867,0.875 L2.167,0.875 L2.167,2.625 L0.867,2.625 L0.867,0.875 ZM0.867,3.500 L2.167,3.500 L2.167,5.250 L0.867,5.250 L0.867,3.500 ZM0.867,6.125 L2.167,6.125 L2.167,7.875 L0.867,7.875 L0.867,6.125 ZM0.867,8.750 L2.167,8.750 L2.167,10.500 L0.867,10.500 L0.867,8.750 ZM0.867,13.125 L0.867,11.375 L2.167,11.375 L2.167,13.125 L0.867,13.125 ZM3.033,13.125 L3.033,7.437 L9.967,7.437 L9.967,13.125 L3.033,13.125 ZM12.133,13.125 L10.833,13.125 L10.833,11.375 L12.133,11.375 L12.133,13.125 ZM12.133,10.500 L10.833,10.500 L10.833,8.750 L12.133,8.750 L12.133,10.500 ZM12.133,7.875 L10.833,7.875 L10.833,6.125 L12.133,6.125 L12.133,7.875 ZM12.133,5.250 L10.833,5.250 L10.833,3.500 L12.133,3.500 L12.133,5.250 ZM12.133,2.625 L10.833,2.625 L10.833,0.875 L12.133,0.875 L12.133,2.625 Z" class="cls-1"/>
</svg>
